<?xml version="1.0" encoding="UTF-8"?>
<svg version="1.1" xmlns="http://www.w3.org/2000/svg" width="50" height="50">
<path d="M0 0 C2.0078125 0.1328125 2.0078125 0.1328125 5.0078125
1.1328125 C5.6678125 0.8028125 6.3278125 0.4728125 7.0078125 0.1328125
C25.87996472 -1.10503834 25.87996472 -1.10503834 32.0078125 4.1328125 C37.28116341
9.18468267 40.7894847 13.48784836 41.23828125 20.98046875 C41.23433088 22.38548412
41.21977753 23.79050459 41.1953125 25.1953125 C41.19466797 25.90236328 41.19402344
26.60941406 41.19335938 27.33789062 C41.16433887 30.77198322 40.87328119 33.82179927
40.0078125 37.1328125 C40.3378125 37.7928125 40.6678125 38.4528125 41.0078125 39.1328125 C41.19485654 41.82294589 41.09362641 44.42967427 41.0078125 47.1328125 C40.6778125 47.4628125 40.3478125 47.7928125 40.0078125 48.1328125 C37.57210629 47.86676549 35.16501447 47.48283285 32.74609375 47.09375 C29.88304028 46.93292338 29.88304028 46.93292338 27.16796875 48.58203125 C23.4172967 50.4225959 20.22291142 50.63223239 16.1328125 50.5703125 C15.42390869 50.56128906 14.71500488 50.55226562 13.98461914 50.54296875 C7.07422195 50.31392117 2.99780979 48.99151251 -1.94921875 44.26171875 C-7.55009168 38.22737704 -9.34309295 33.46784634 -9.3046875 25.1953125 C-9.32080078 24.50501953 -9.33691406 23.81472656 -9.35351562 23.10351562 C-9.35808456 18.28329431 -8.16382507 15.34800179 -5.9921875 11.1328125 C-5.87444219 8.41065861 -5.87444219 8.41065861 -6.3671875 5.8203125 C-6.6047788 4.26199308 -6.82102659 2.69982015 -6.9921875 1.1328125 C-5.11159717 -0.74777783 -2.49328712 0.00920032 0 0 Z M-3.9921875 3.1328125 C-3.3321875 4.4528125 -2.6721875 5.7728125 -1.9921875 7.1328125 C-1.3321875 5.8128125 -0.6721875 4.4928125 0.0078125 3.1328125 C-1.3121875 3.1328125 -2.6321875 3.1328125 -3.9921875 3.1328125 Z M2.0078125 7.1328125 C2.0078125 7.4628125 2.0078125 7.7928125 2.0078125 8.1328125 C3.27238281 8.10960937 4.53695313 8.08640625 5.83984375 8.0625 C7.4999941 8.04374124 9.16015083 8.02554115 10.8203125 8.0078125 C12.07038086 7.98267578 12.07038086 7.98267578 13.34570312 7.95703125 C14.14814453 7.95058594 14.95058594 7.94414063 15.77734375 7.9375 C16.51573486 7.92702637 17.25412598 7.91655273 18.01489258 7.90576172 C20.0078125 8.1328125 20.0078125 8.1328125 23.0078125 10.1328125 C23.3378125 11.1228125 23.6678125 12.1128125 24.0078125 13.1328125 C25.956875 12.854375 25.956875 12.854375 27.9453125 12.5703125 C30.16015625 12.25390625 30.16015625 12.25390625 32.0078125 12.1328125 C33.0078125 13.1328125 33.0078125 13.1328125 33.10546875 15.63671875 C33.09386719 16.64605469 33.08226563 17.65539062 33.0703125 18.6953125 C33.06128906 19.70722656 33.05226563 20.71914063 33.04296875 21.76171875 C33.03136719 22.54417969 33.01976563 23.32664062 33.0078125 24.1328125 C34.6578125 24.4628125 36.3078125 24.7928125 38.0078125 25.1328125 C37.70343285 18.28427035 36.65175564 13.73671231 31.5859375 8.7265625 C25.72615635 3.53129262 20.64347177 2.70282907 13.03515625 2.796875 C8.62459686 3.28630482 5.76387929 4.82138678 2.0078125 7.1328125 Z M0.0078125 11.1328125 C4.73041421 19.24910914 4.73041421 19.24910914 13.0078125 23.1328125 C16.33714916 23.6153957 19.64991653 23.93687893 23.0078125 24.1328125 C23.3378125 25.4528125 23.6678125 26.7728125 24.0078125 28.1328125 C22.6878125 28.4628125 21.3678125 28.7928125 20.0078125 29.1328125 C20.0078125 29.7928125 20.0078125 30.4528125 20.0078125 31.1328125 C21.6578125 31.1328125 23.3078125 31.1328125 25.0078125 31.1328125 C25.0078125 32.7828125 25.0078125 34.4328125 25.0078125 36.1328125 C24.3478125 36.1328125 23.6878125 36.1328125 23.0078125 36.1328125 C23.0078125 36.7928125 23.0078125 37.4528125 23.0078125 38.1328125 C24.9878125 38.7928125 26.9678125 39.4528125 29.0078125 40.1328125 C29.04519531 39.44574219 29.08257812 38.75867188 29.12109375 38.05078125 C29.18683594 37.14972656 29.25257812 36.24867187 29.3203125 35.3203125 C29.37832031 34.42699219 29.43632813 33.53367187 29.49609375 32.61328125 C30.07094831 29.8267725 30.8284981 28.89145496 33.0078125 27.1328125 C32.3478125 26.8028125 31.6878125 26.4728125 31.0078125 26.1328125 C30.30177846 22.39083211 30.0078125 18.94488511 30.0078125 15.1328125 C27.3678125 15.1328125 24.7278125 15.1328125 22.0078125 15.1328125 C21.3478125 13.8128125 20.6878125 12.4928125 20.0078125 11.1328125 C13.4078125 11.1328125 6.8078125 11.1328125 0.0078125 11.1328125 Z M-3.9921875 14.1328125 C-4.3221875 15.1228125 -4.6521875 16.1128125 -4.9921875 17.1328125 C-4.3528125 17.6690625 -3.7134375 18.2053125 -3.0546875 18.7578125 C-0.57838958 21.60930708 -0.38571528 23.43365134 0.0078125 27.1328125 C0.3378125 28.1228125 0.6678125 29.1128125 1.0078125 30.1328125 C1.6678125 30.1328125 2.3278125 30.1328125 3.0078125 30.1328125 C2.9665625 31.3496875 2.9253125 32.5665625 2.8828125 33.8203125 C2.87026742 37.35175377 3.40783033 39.93284816 5.0078125 43.1328125 C4.3478125 43.4628125 3.6878125 43.7928125 3.0078125 44.1328125 C9.20048619 47.51063451 15.02077014 47.86578561 22.0078125 47.1328125 C24.78280338 46.19404577 24.78280338 46.19404577 27.0078125 45.1328125 C25.85830299 41.68428396 25.20745099 40.7758701 22.0078125 39.1328125 C18.78606706 39.84505097 18.78606706 39.84505097 16.0078125 41.1328125 C15.5128125 38.6578125 15.5128125 38.6578125 15.0078125 36.1328125 C14.3478125 36.1328125 13.6878125 36.1328125 13.0078125 36.1328125 C12.6778125 37.4528125 12.3478125 38.7728125 12.0078125 40.1328125 C10.3578125 40.1328125 8.7078125 40.1328125 7.0078125 40.1328125 C7.04261719 39.50375 7.07742187 38.8746875 7.11328125 38.2265625 C7.41128788 28.80387657 5.05155691 23.0660112 -0.58984375 15.6015625 C-1.05261719 15.116875 -1.51539063 14.6321875 -1.9921875 14.1328125 C-2.6521875 14.1328125 -3.3121875 14.1328125 -3.9921875 14.1328125 Z M-5.9921875 20.1328125 C-6.46398098 27.26213623 -6.41854621 33.22606627 -1.9921875 39.1328125 C-1.0021875 39.7928125 -0.0121875 40.4528125 1.0078125 41.1328125 C0.8840625 39.8540625 0.7603125 38.5753125 0.6328125 37.2578125 C0.56320313 36.53851563 0.49359375 35.81921875 0.421875 35.078125 C0.14406501 32.90613005 0.14406501 32.90613005 -1.9921875 31.1328125 C-2.33198498 28.8273511 -2.43369476 26.55318427 -2.55078125 24.2265625 C-2.81941712 21.74263429 -2.81941712 21.74263429 -5.9921875 20.1328125 Z M9.0078125 25.1328125 C9.3378125 28.4328125 9.6678125 31.7328125 10.0078125 35.1328125 C11.3278125 34.1428125 12.6478125 33.1528125 14.0078125 32.1328125 C15.3278125 32.7928125 16.6478125 33.4528125 18.0078125 34.1328125 C17.3478125 32.4828125 16.6878125 30.8328125 16.0078125 29.1328125 C16.9978125 28.1428125 17.9878125 27.1528125 19.0078125 26.1328125 C15.7078125 25.8028125 12.4078125 25.4728125 9.0078125 25.1328125 Z M32.0078125 32.1328125 C32.0078125 34.7728125 32.0078125 37.4128125 32.0078125 40.1328125 C34.53369952 37.76988594 35.89602087 36.46818739 37.0078125 33.1328125 C35.3578125 32.8028125 33.7078125 32.4728125 32.0078125 32.1328125 Z M18.0078125 34.1328125 C18.0078125 34.7928125 18.0078125 35.4528125 18.0078125 36.1328125 C18.6678125 36.1328125 19.3278125 36.1328125 20.0078125 36.1328125 C20.0078125 35.4728125 20.0078125 34.8128125 20.0078125 34.1328125 C19.3478125 34.1328125 18.6878125 34.1328125 18.0078125 34.1328125 Z M36.0078125 41.1328125 C35.0178125 42.6178125 35.0178125 42.6178125 34.0078125 44.1328125 C35.3278125 44.4628125 36.6478125 44.7928125 38.0078125 45.1328125 C38.0078125 43.8128125 38.0078125 42.4928125 38.0078125 41.1328125 C37.3478125 41.1328125 36.6878125 41.1328125 36.0078125 41.1328125 Z "
    fill="#0000FF" transform="translate(8.9921875,-0.1328125)"/>
</svg>
